<svg width="63" height="49" viewBox="0 0 63 49" fill="none" xmlns="http://www.w3.org/2000/svg">
<path d="M52.824 40.803C52.824 41.5329 52.3195 42.0682 51.5936 42.0682C50.8553 42.0682 50.3631 41.5086 50.3631 40.803C50.3631 40.0974 50.843 39.5378 51.5936 39.5378C52.3195 39.5378 52.824 40.0974 52.824 40.803ZM18.8262 39.5378C18.051 39.5378 17.5957 40.0974 17.5957 40.803C17.5957 41.5086 18.0387 42.0682 18.8262 42.0682C19.5398 42.0682 20.0197 41.5329 20.0197 40.803C20.0074 40.0974 19.5398 39.5378 18.8262 39.5378ZM31.6723 39.5013C31.0816 39.5013 30.7248 39.8784 30.6387 40.438H32.7305C32.632 39.8298 32.2506 39.5013 31.6723 39.5013ZM43.4725 39.5378C42.7342 39.5378 42.2789 40.0974 42.2789 40.803C42.2789 41.5086 42.7219 42.0682 43.4725 42.0682C44.2107 42.0682 44.7029 41.5329 44.7029 40.803C44.6906 40.0974 44.2107 39.5378 43.4725 39.5378ZM55.0512 42.3602L55.0881 42.4818L55.0512 42.6035L55.002 42.6886L54.8789 42.7373L54.7559 42.7738L54.6328 42.7373L54.5467 42.6886L54.4975 42.6035L54.4605 42.4818L54.4975 42.3602L54.5467 42.2385L54.6328 42.1899L54.7559 42.1534L54.8789 42.1899L55.002 42.2385L55.0512 42.3602ZM54.8051 42.5062L54.8912 42.4697L54.9281 42.3845L54.8912 42.2994L54.7682 42.2629H54.5959V42.64H54.682V42.494H54.7189L54.842 42.64H54.9281L54.8051 42.5062ZM63 5.19466V43.2604C63 46.1315 60.6498 48.4551 57.7459 48.4551H5.2541C2.3502 48.4429 0 46.1193 0 43.2483V5.19466C0 2.32361 2.3502 0 5.2541 0H57.7582C60.6498 0 63 2.32361 63 5.19466ZM7.00137 20.2798C7.00137 28.5524 13.7936 35.2555 22.1484 35.2555C25.1262 35.2555 28.0424 34.3675 30.5156 32.7616C22.5422 26.3504 22.6037 14.2458 30.5156 7.83457C28.0424 6.21656 25.1262 5.34064 22.1484 5.34064C13.7936 5.32848 7.00137 12.0438 7.00137 20.2798ZM31.5 32.0439C39.215 26.0949 39.1781 14.5012 31.5 8.528C23.8219 14.5134 23.785 26.1193 31.5 32.0439ZM15.9346 40.3042C15.9346 39.3675 15.307 38.747 14.3227 38.7105C13.8182 38.7105 13.2891 38.8565 12.9199 39.4161C12.6615 38.9782 12.2062 38.7105 11.591 38.7105C11.1727 38.7105 10.7543 38.8565 10.4344 39.2945V38.82H9.53613V42.786H10.4344C10.4344 40.7422 10.1637 39.5135 11.4188 39.5135C12.5385 39.5135 12.317 40.6205 12.317 42.786H13.1783C13.1783 40.803 12.9076 39.5135 14.1627 39.5135C15.2824 39.5135 15.0609 40.5962 15.0609 42.786H15.9592V40.3042H15.9346V40.3042ZM20.8441 38.82H19.9828V39.2945C19.6875 38.9417 19.2691 38.7105 18.7031 38.7105C17.5834 38.7105 16.7098 39.5986 16.7098 40.803C16.7098 42.0195 17.5711 42.8833 18.7031 42.8833C19.2691 42.8833 19.6875 42.6765 19.9828 42.2994V42.7981H20.8441V38.82ZM25.2738 41.5816C25.2738 39.9636 22.7637 40.6935 22.7637 39.9393C22.7637 39.3188 24.068 39.4161 24.7939 39.8176L25.1508 39.112C24.1172 38.4551 21.8531 38.4672 21.8531 40.0001C21.8531 41.5451 24.3633 40.9003 24.3633 41.6181C24.3633 42.2994 22.8867 42.2507 22.0992 41.7032L21.7178 42.3845C22.9359 43.2239 25.2738 43.0414 25.2738 41.5816ZM29.1498 42.5913L28.9037 41.8614C28.4854 42.0925 27.5625 42.3358 27.5625 41.4234V39.6351H28.9898V38.82H27.5625V37.6035H26.6643V38.82H25.8398V39.6108H26.6643V41.4234C26.6766 43.3213 28.5715 42.9685 29.1498 42.5913ZM30.6018 41.1436H33.6041C33.6041 39.3918 32.792 38.6984 31.6969 38.6984C30.5402 38.6984 29.7035 39.55 29.7035 40.7787C29.7035 42.9928 32.1768 43.3577 33.3949 42.3115L32.9766 41.6667C32.1521 42.3602 30.8602 42.2994 30.6018 41.1436ZM37.074 38.82C36.5695 38.601 35.8066 38.6254 35.4129 39.2945V38.82H34.5146V42.786H35.4129V40.5475C35.4129 39.2945 36.4588 39.4526 36.8156 39.6351L37.074 38.82ZM38.2307 40.803C38.2307 39.5743 39.498 39.1728 40.4947 39.8906L40.9131 39.185C39.6457 38.1996 37.3324 38.747 37.3324 40.803C37.3324 42.9441 39.7811 43.3699 40.9131 42.421L40.4947 41.7154C39.4857 42.4332 38.2307 42.0074 38.2307 40.803ZM45.5273 38.82H44.6291V39.2945C43.7186 38.1023 41.3561 38.7714 41.3561 40.803C41.3561 42.8833 43.8047 43.4794 44.6291 42.3115V42.8103H45.5273V38.82ZM49.2064 38.82C48.948 38.6862 48.0006 38.5037 47.5453 39.2945V38.82H46.684V42.786H47.5453V40.5475C47.5453 39.3553 48.5297 39.4283 48.948 39.6351L49.2064 38.82ZM53.6115 37.202H52.7502V39.2945C51.852 38.1144 49.4771 38.747 49.4771 40.803C49.4771 42.8955 51.9381 43.4672 52.7502 42.3115V42.8103H53.6115V37.202ZM54.4482 29.0876V29.5864H54.5344V29.0876H54.7436V29.0025H54.2391V29.0876H54.4482ZM55.1742 42.4697L55.1373 42.2994L55.0512 42.1777L54.9281 42.0925L54.7559 42.056L54.6082 42.0925L54.4852 42.1777L54.399 42.2994L54.3621 42.4697L54.399 42.6157L54.4852 42.7373L54.6082 42.8225L54.7559 42.859L54.9281 42.8225L55.0512 42.7373L55.1373 42.6157L55.1742 42.4697ZM55.5188 28.9903H55.3711L55.1988 29.3675L55.0266 28.9903H54.8789V29.5743H54.965V29.1363L55.1373 29.5134H55.2604L55.408 29.1363V29.5743H55.5311L55.5188 28.9903ZM55.9986 20.2798C55.9986 12.0438 49.2064 5.32848 40.8516 5.32848C37.8738 5.32848 34.9576 6.21656 32.4844 7.8224C40.3717 14.2336 40.4947 26.3626 32.4844 32.7495C34.9576 34.3675 37.8984 35.2434 40.8516 35.2434C49.2064 35.2555 55.9986 28.5524 55.9986 20.2798Z" fill="#72927A"/>
</svg>
