<svg width="63" height="48" viewBox="0 0 63 48" fill="none" xmlns="http://www.w3.org/2000/svg">
<path d="M4.84615 0C2.16865 0 0 2.148 0 4.8V14.5172H7.32129C9.32033 14.5172 10.0851 16.3734 10.0851 16.3734L11.7841 24.9234C9.77295 18.5058 2.02085 15.3941 0 14.6813V43.2C0 45.852 2.16865 48 4.84615 48H58.1538C60.8313 48 63 45.852 63 43.2V4.8C63 2.148 60.8313 0 58.1538 0H4.84615ZM39.6637 14.0906C42.0044 14.0906 44.3963 15.0187 44.3963 15.0187L43.5775 19.1813C43.5775 19.1813 41.711 17.9672 40.0754 17.9672C37.5651 17.9672 36.6869 18.7783 36.6869 19.8703C36.6869 22.0087 43.6958 22.3548 43.6958 27.15C43.6934 31.134 38.6694 33.9094 35.0542 33.9094C31.4341 33.9094 29.5644 32.8172 29.5644 32.8172L30.4399 28.8234C30.4399 28.8234 32.3686 29.9203 35.2908 29.9203C38.2082 29.9203 38.6131 28.7067 38.6131 28.1859C38.6131 25.1259 31.6136 25.9419 31.6136 19.9875C31.6136 16.6947 34.3547 14.0906 39.6637 14.0906ZM17.0136 14.4703H22.4182L14.7325 33.3188H9.16699L5.11591 18.0563C5.11591 18.0563 9.38454 20.1975 12.016 26.0391C12.1299 26.7495 12.3946 27.8906 12.3946 27.8906L17.0136 14.4703ZM24.4106 14.4703H29.5218L26.4693 33.3188H21.4196L24.4106 14.4703ZM51.8501 14.4703H57.16L61.0691 33.3188H56.4738L55.9295 30.6328H49.6116L48.5751 33.3188H43.5586L51.8501 14.4703ZM53.7573 19.9078L51.0124 27.0281H55.196L53.7573 19.9078Z" fill="#72927A"/>
</svg>
